<svg width="18" height="18" viewBox="0 0 18 18" fill="none" xmlns="http://www.w3.org/2000/svg">
<path d="M2.6901 10.3341C4.02468 11.6609 6.35215 13.4999 9.00014 13.4999C11.6481 13.4999 13.9752 11.6609 15.3097 10.3341C15.6617 9.9842 15.8383 9.80864 15.9504 9.46509C16.0303 9.21996 16.0303 8.78005 15.9504 8.53493C15.8383 8.19136 15.6617 8.01578 15.3097 7.66583C13.9752 6.33906 11.6481 4.5 9.00014 4.5C6.35215 4.5 4.02468 6.33906 2.6901 7.66583C2.33785 8.01602 2.16171 8.19124 2.0496 8.53493C1.96963 8.78005 1.96963 9.21996 2.0496 9.46509C2.16171 9.80878 2.33785 9.98392 2.6901 10.3341Z" stroke="white" stroke-width="0.75" stroke-linecap="round" stroke-linejoin="round"/>
<path d="M7.5 9C7.5 9.82843 8.17157 10.5 9 10.5C9.82843 10.5 10.5 9.82843 10.5 9C10.5 8.17157 9.82843 7.5 9 7.5C8.17157 7.5 7.5 8.17157 7.5 9Z" stroke="white" stroke-width="0.75" stroke-linecap="round" stroke-linejoin="round"/>
</svg>
