<svg width="17" height="18" viewBox="0 0 17 18" fill="none" xmlns="http://www.w3.org/2000/svg">
<path d="M11.6296 0.666672C14.8251 0.666672 16.8333 2.66022 16.8333 5.87775V8.01789C16.8333 8.18633 16.7659 8.34778 16.6461 8.4662C16.5263 8.58462 16.3641 8.65016 16.1957 8.6482V8.63354C15.8435 8.63354 15.558 8.34806 15.558 7.9959V5.87775C15.558 3.33451 14.1655 1.94196 11.6296 1.94196H5.37774C2.84183 1.94196 1.44195 3.34184 1.44195 5.87775V12.1296C1.44195 14.6582 2.84183 16.058 5.37774 16.058H11.6296C14.1655 16.058 15.558 14.6582 15.558 12.1296C15.558 11.7774 15.8435 11.4919 16.1957 11.4919C16.5478 11.4919 16.8333 11.7774 16.8333 12.1296C16.8333 15.3398 14.8398 17.3333 11.6296 17.3333H5.37774C2.16021 17.3333 0.166664 15.3398 0.166664 12.1296V5.87775C0.166664 2.66022 2.16021 0.666672 5.37774 0.666672H11.6296ZM8.55863 10.3706C8.72845 10.3743 8.88956 10.4465 9.00546 10.5707C9.12135 10.6948 9.18223 10.8605 9.17428 11.0302V11.8364L9.16293 11.9365C9.13742 12.0678 9.07106 12.1886 8.97208 12.281C8.84836 12.3964 8.68379 12.458 8.51465 12.4521C8.16419 12.4362 7.89067 12.1432 7.899 11.7924V10.9862C7.90473 10.8171 7.97747 10.6571 8.1012 10.5417C8.22493 10.4262 8.38949 10.3646 8.55863 10.3706ZM8.52931 5.54061C8.60027 5.54059 8.66997 5.55253 8.73574 5.57531C8.99813 5.65433 9.18894 5.89767 9.18894 6.18558L9.18833 8.17834L11.3584 8.17913C11.4315 8.17827 11.5034 8.19013 11.5711 8.21349C11.6699 8.24362 11.7615 8.29827 11.836 8.37366C11.9544 8.49345 12.02 8.65567 12.0181 8.8241C12.0181 9.17062 11.7415 9.45378 11.395 9.46174H5.71489C5.65522 9.46039 5.5976 9.45096 5.54305 9.43452C5.26429 9.3651 5.05857 9.1151 5.05522 8.81677C5.0533 8.64834 5.11884 8.48612 5.23726 8.36633C5.35568 8.24653 5.51713 8.17912 5.68557 8.17913H7.88434V6.17825C7.89222 5.82656 8.17756 5.54447 8.52931 5.54061Z" fill="#696969"/>
</svg>
